<svg width="112" height="40" viewBox="0 0 112 40" fill="none" xmlns="http://www.w3.org/2000/svg">
<mask id="mask0_1_469" style="mask-type:luminance" maskUnits="userSpaceOnUse" x="0" y="0" width="112" height="40">
<path d="M111.669 0H0.330994V40H111.669V0Z" fill="white"/>
</mask>
<g mask="url(#mask0_1_469)">
<path d="M43.338 14.8291L55.338 29.2851C55.7261 29.7539 56.2719 30.065 56.873 30.1601V21.7591L44.879 7.8881C44.4837 7.43107 43.9363 7.13267 43.338 7.0481V14.8291Z" fill="#03FF94"/>
<path d="M75.728 12.105C76.8067 12.0877 77.8682 12.3769 78.789 12.939C79.7039 13.5057 80.4507 14.3067 80.952 15.259C81.4945 16.2883 81.7696 17.4375 81.752 18.601C81.7702 19.7575 81.495 20.8997 80.952 21.921C80.4474 22.8683 79.6976 23.6626 78.781 24.221C78.0962 24.6402 77.3325 24.914 76.5373 25.0253C75.7421 25.1366 74.9326 25.083 74.159 24.868C73.3827 24.6507 72.659 24.2772 72.0321 23.7705C71.4052 23.2638 70.8883 22.6344 70.513 21.921C69.9789 20.8947 69.7085 19.7518 69.726 18.595C69.7091 17.4288 69.9801 16.2764 70.515 15.24C71.0045 14.2828 71.7523 13.4818 72.6736 12.9277C73.595 12.3737 74.653 12.0887 75.728 12.105ZM81.528 8.50498C79.7665 7.48464 77.7636 6.95526 75.728 6.97198C73.7202 6.94809 71.7431 7.46685 70.0057 8.47347C68.2683 9.4801 66.8349 10.9372 65.857 12.691C64.8418 14.4943 64.318 16.5326 64.338 18.602V37.202C64.3284 37.6659 64.4342 38.1249 64.646 38.5378C64.8577 38.9507 65.1688 39.3044 65.5511 39.5673C65.9335 39.8302 66.3752 39.9939 66.8365 40.0438C67.2978 40.0936 67.7643 40.0281 68.194 39.853C68.7076 39.6304 69.1424 39.2587 69.4422 38.786C69.7419 38.3133 69.8927 37.7614 69.875 37.202V27.821C71.5466 29.1964 73.6047 30.0177 75.764 30.171C77.9232 30.3244 80.0768 29.8023 81.926 28.677C83.5579 27.6549 84.8811 26.2083 85.754 24.492C86.6884 22.6711 87.1635 20.6494 87.138 18.603C87.1607 16.5384 86.6477 14.5031 85.649 12.696C84.68 10.9516 83.2561 9.5025 81.529 8.50298" fill="white"/>
<path d="M103.394 24.2399C102.447 24.777 101.376 25.0594 100.287 25.0594C99.1979 25.0594 98.1274 24.777 97.18 24.2399C96.2682 23.6978 95.5265 22.9111 95.039 21.9689C94.5016 20.9303 94.2312 19.7742 94.252 18.6049C94.232 17.4271 94.5034 16.2626 95.042 15.2149C95.5288 14.2666 96.2697 13.4724 97.182 12.9209C98.1294 12.3838 99.1999 12.1015 100.289 12.1015C101.378 12.1015 102.449 12.3838 103.396 12.9209C104.305 13.4645 105.04 14.2562 105.514 15.2029C106.042 16.2573 106.308 17.4238 106.288 18.6029C106.308 19.7724 106.043 20.9291 105.515 21.9729C105.037 22.9138 104.301 23.6996 103.394 24.2389M110.194 12.5969C109.243 10.8684 107.834 9.43579 106.121 8.45693C104.341 7.45337 102.327 6.9399 100.284 6.96893C98.2208 6.93707 96.1856 7.44999 94.384 8.45593C92.6645 9.42881 91.2532 10.8655 90.311 12.6019C89.3258 14.4463 88.8268 16.5112 88.861 18.6019C88.8303 20.6789 89.3293 22.7294 90.311 24.5599C91.2538 26.2975 92.6667 27.7347 94.388 28.7069C96.1968 29.682 98.2196 30.1925 100.274 30.1925C102.329 30.1925 104.352 29.682 106.161 28.7069C107.867 27.7259 109.268 26.2902 110.206 24.5599C111.185 22.7283 111.681 20.6775 111.648 18.6009C111.682 16.5079 111.176 14.4415 110.179 12.6009" fill="white"/>
<path d="M30.714 16.0771H19.901C20.2402 14.8385 20.9971 13.7552 22.0436 13.0107C23.09 12.2662 24.3616 11.9064 25.643 11.9921C26.2939 11.9604 26.9443 12.0615 27.5548 12.2893C28.1653 12.5171 28.723 12.8668 29.194 13.3171C29.9476 14.0765 30.4717 15.0332 30.706 16.0771M31.178 8.4531C29.5045 7.46645 27.5882 6.96765 25.646 7.0131C23.6243 6.98303 21.6319 7.49807 19.878 8.50411C18.1836 9.49265 16.8006 10.9367 15.886 12.6721C14.9222 14.5123 14.4331 16.564 14.463 18.6411C14.4312 20.732 14.9539 22.7939 15.978 24.6171C16.9694 26.3628 18.429 27.7968 20.192 28.7571C21.7142 29.5756 23.3904 30.0675 25.1135 30.2015C26.8365 30.3354 28.5686 30.1085 30.199 29.5351C31.4541 29.1295 32.6294 28.5097 33.673 27.7031C33.9639 27.4969 34.201 27.2239 34.3644 26.907C34.5278 26.5901 34.6127 26.2386 34.612 25.8821C34.5853 25.1983 34.2934 24.5518 33.7981 24.0796C33.3029 23.6073 32.6433 23.3464 31.959 23.3521C31.3224 23.3416 30.7017 23.5514 30.202 23.9461C29.6465 24.3499 29.0306 24.6631 28.377 24.8741C27.2768 25.2559 26.0983 25.3553 24.9496 25.1631C23.801 24.9709 22.719 24.4933 21.803 23.7741C20.8686 23.0146 20.1897 21.9867 19.858 20.8291H33.458C33.7951 20.8378 34.1306 20.779 34.4447 20.6562C34.7588 20.5334 35.0452 20.3491 35.287 20.1141C35.5284 19.8784 35.719 19.5957 35.8471 19.2836C35.9752 18.9715 36.0382 18.6364 36.032 18.2991C36.0673 16.2943 35.6445 14.3078 34.796 12.4911C34.0066 10.8231 32.7497 9.42025 31.178 8.4531Z" fill="white"/>
<path d="M43.335 22.1101V7.04511C43.0068 6.99578 42.6721 7.01228 42.3503 7.09366C42.0286 7.17504 41.7263 7.31967 41.461 7.51911L38.815 9.51211C38.4986 9.75209 38.2421 10.062 38.0655 10.4177C37.8889 10.7733 37.797 11.165 37.797 11.5621L37.772 22.1111H37.758V27.3801C37.7471 27.8477 37.8529 28.3106 38.066 28.7269C38.2791 29.1432 38.5926 29.4998 38.9783 29.7644C39.3639 30.0291 39.8095 30.1933 40.2746 30.2423C40.7397 30.2913 41.2097 30.2235 41.642 30.0451C42.1599 29.8217 42.5988 29.448 42.9019 28.9723C43.205 28.4966 43.3583 27.9409 43.342 27.3771L43.335 22.1101Z" fill="white"/>
<path d="M56.868 15.096V30.16C57.1962 30.2093 57.5309 30.1928 57.8527 30.1114C58.1744 30.0301 58.4767 29.8854 58.742 29.686L61.382 27.695C61.6976 27.4561 61.9538 27.1475 62.1306 26.7933C62.3073 26.4391 62.3999 26.0488 62.401 25.653L62.423 15.096H62.44V9.82499C62.4506 9.35745 62.3445 8.89463 62.1315 8.47832C61.9184 8.06201 61.605 7.70532 61.2195 7.44046C60.8341 7.1756 60.3888 7.0109 59.9238 6.96124C59.4587 6.91157 58.9887 6.97851 58.556 7.15599C58.0387 7.37994 57.6007 7.75413 57.2986 8.23003C56.9966 8.70593 56.8444 9.2616 56.862 9.82499L56.868 15.096Z" fill="white"/>
<path d="M14.564 25.617C14.3457 25.3594 14.0737 25.1527 13.7671 25.0114C13.4605 24.8701 13.1266 24.7976 12.789 24.799H11.481C11.1968 24.7991 10.9168 24.7309 10.6645 24.6003C10.4121 24.4696 10.1949 24.2802 10.031 24.048C9.56921 23.4515 9.33362 22.7107 9.366 21.957V11.957H11.826C12.5102 11.9791 13.1759 11.733 13.681 11.271C13.9246 11.0467 14.1183 10.7736 14.2494 10.4695C14.3805 10.1654 14.4461 9.83713 14.442 9.506C14.4515 9.16213 14.3885 8.82011 14.2571 8.50222C14.1256 8.18433 13.9286 7.8977 13.679 7.661C13.1744 7.19909 12.5087 6.95351 11.825 6.977H9.375V1.177C9.37545 0.9624 9.31717 0.751762 9.20648 0.567912C9.09578 0.384061 8.93688 0.234006 8.747 0.134004C8.55755 0.0349248 8.34421 -0.00933031 8.13098 0.00621597C7.91774 0.0217622 7.71308 0.0964932 7.54 0.222004L7.525 0.235004L4.91 2.2C4.59632 2.43619 4.34186 2.74209 4.16674 3.09354C3.99163 3.44499 3.90065 3.83235 3.901 4.225V6.982H2.949C2.26496 6.95836 1.59894 7.20394 1.094 7.666C0.844246 7.90281 0.64721 8.1896 0.515742 8.50768C0.384273 8.82575 0.321325 9.16797 0.331 9.512C0.325718 9.84302 0.390525 10.1714 0.521164 10.4756C0.651803 10.7798 0.845319 11.0529 1.089 11.277C1.59374 11.7396 2.25972 11.9859 2.944 11.963H3.903V21.963C3.88248 23.4314 4.21733 24.883 4.879 26.194C5.50202 27.425 6.44328 28.4667 7.605 29.211C8.77165 29.9111 10.1175 30.2549 11.477 30.2H12.168C12.9402 30.2686 13.7104 30.0496 14.331 29.585C14.6243 29.3367 14.859 29.0266 15.018 28.6768C15.1771 28.327 15.2567 27.9462 15.251 27.562C15.2728 26.851 15.0285 26.1575 14.566 25.617" fill="white"/>
<path d="M44.859 16.6691L43.334 14.8311V7.0481L44.859 16.6691Z" fill="#009E5C"/>
<path d="M55.341 19.991L56.869 21.758V30.158L55.341 19.991Z" fill="#009E5C"/>
</g>
</svg>
